<?xml version="1.0" encoding="utf-8"?>
<!-- Generator: Adobe Illustrator 24.0.2, SVG Export Plug-In . SVG Version: 6.00 Build 0)  -->
<svg version="1.1" id="Capa_1" xmlns="http://www.w3.org/2000/svg" xmlns:xlink="http://www.w3.org/1999/xlink" x="0px" y="0px"
	 viewBox="0 0 151 24" style="enable-background:new 0 0 151 24;" xml:space="preserve">
<style type="text/css">
	.st0{fill:#1BB593;}
	.st1{fill:#1BB5BB;}
	.st2{fill:#1BB59A;}
	.st3{fill:#1BB595;}
	.st4{fill:#F7931A;}
	.st5{font-family:'MyriadPro-Regular';}
	.st6{font-size:14px;}
</style>
<path class="st0" d="M16.9,20.3c-6.4,2-16.8,0-16.9-8.9c-0.1-8.9,11-3.6,11-3.6L16.9,20.3z"/>
<path class="st1" d="M3.1,6.4c4.5-0.8,7.9,5.2,11.7,11.4c3.8,6.2,13.6,8.7,19.8,3.4c6.3-5.2,8.9-14.3,1.2-19.8
	c-7.7-5.4-12.5,6.9-19.1,7.3C10.1,9,10,4.1,3.1,6.4z"/>
<circle class="st2" cx="31.4" cy="13.1" r="1.5"/>
<path class="st3" d="M34,13.9c0.6,0,1.1,0.5,1.1,1.1s-0.5,1.1-1.1,1.1s-1.1-0.5-1.1-1.1c0-2.2,0.7-5.3,2.3-5.4c0.9,0,2,0.9,2,2
	c0,1.1-1.1,2-2,2c-1.2-0.1-1.8-2.1-2-2C33.1,11.7,32.8,13.9,34,13.9z"/>
<rect x="-0.7" y="19.3" class="st4" width="0.7" height="0.7"/>
<path class="st1" d="M36.2,11.5"/>
<path class="st3" d="M72.6-12"/>
<path class="st2" d="M51.1,3.2"/>
<path class="st1" d="M118.7-15.3"/>
<path class="st0" d="M-0.4,19.6c20-5.2,40-10.3,60-15.5"/>
<text transform="matrix(1 0 0 1 64.2553 17.574)" class="st5 st6">CAMIREP</text>
</svg>
