<svg id="Capa_1" data-name="Capa 1" xmlns="http://www.w3.org/2000/svg" viewBox="0 0 150.18 24"><defs><style>.cls-1{fill:#1bb593;}.cls-2{fill:#1bb5bb;}.cls-3{fill:#1bb59a;}.cls-4{fill:#1bb595;}.cls-5{fill:#f7931a;}</style></defs><title>nuevo</title><path class="cls-1" d="M16.89,20.28c-6.42,2-16.8,0-16.89-8.94S11,7.75,11,7.75Z" transform="translate(0.73 0)"/><path class="cls-2" d="M3.12,6.35C7.61,5.59,11,11.53,14.78,17.72s13.57,8.66,19.84,3.45S43.54,6.83,35.85,1.38,23.35,8.3,16.72,8.64,10.05,4.05,3.12,6.35Z" transform="translate(0.73 0)"/><circle class="cls-3" cx="32.16" cy="13.1" r="1.48"/><path class="cls-4" d="M34.05,13.92a1.15,1.15,0,1,1-1.15,1.14c0-2.18.72-5.33,2.3-5.41a2.08,2.08,0,0,1,2,2,2,2,0,0,1-2,2c-1.16-.1-1.76-2.07-2-2S32.79,13.92,34.05,13.92Z" transform="translate(0.73 0)"/><path class="cls-2" d="M51.11,20V3.2h6.74a5.84,5.84,0,0,1,4,1.22,3.94,3.94,0,0,1,1.39,3.1,3.63,3.63,0,0,1-.87,2.54,4.2,4.2,0,0,1-2.06,1.28,4.14,4.14,0,0,1,3.31,4.08,4.22,4.22,0,0,1-1.44,3.28A5.86,5.86,0,0,1,58.09,20Zm3.07-9.74H57.4a3,3,0,0,0,2-.6A2.14,2.14,0,0,0,60.08,8a2.07,2.07,0,0,0-.69-1.65,2.9,2.9,0,0,0-2-.63H54.18Zm0,7.24h3.43a3.16,3.16,0,0,0,2.11-.62,2.2,2.2,0,0,0,.77-1.8,2.3,2.3,0,0,0-.79-1.85,3.19,3.19,0,0,0-2.14-.67H54.18Zm15.14,2.79a5.78,5.78,0,0,1-2.52-.48,3.56,3.56,0,0,1-1.46-1.32,3.52,3.52,0,0,1-.48-1.8A3.28,3.28,0,0,1,66.15,14,6.16,6.16,0,0,1,70,13h3v-.29a2.21,2.21,0,0,0-.7-1.8,2.64,2.64,0,0,0-1.73-.58,2.94,2.94,0,0,0-1.63.46,1.88,1.88,0,0,0-.86,1.3h-3A4.2,4.2,0,0,1,66,9.8a4.83,4.83,0,0,1,2-1.46,6.46,6.46,0,0,1,2.69-.53,5.87,5.87,0,0,1,4,1.27,4.51,4.51,0,0,1,1.47,3.6V20H73.52l-.29-1.92a4.2,4.2,0,0,1-3.91,2.21Zm.7-2.4a2.5,2.5,0,0,0,2-.87A4.07,4.07,0,0,0,73,14.89H70.38a2.68,2.68,0,0,0-1.75.45,1.33,1.33,0,0,0-.53,1.08,1.23,1.23,0,0,0,.53,1.08A2.27,2.27,0,0,0,70,17.89ZM83.25,20a4.61,4.61,0,0,1-3-.91,4,4,0,0,1-1.13-3.24V10.66h-2V8.1h2l.36-3.2h2.71V8.1h3.22v2.56H82.19v5.21a1.59,1.59,0,0,0,.36,1.2,2.09,2.09,0,0,0,1.3.31h1.49V20Zm7.94.29a5.78,5.78,0,0,1-2.52-.48,3.38,3.38,0,0,1-1.94-3.12A3.28,3.28,0,0,1,88,14a6.16,6.16,0,0,1,3.89-1h3v-.29a2.2,2.2,0,0,0-.69-1.8,2.66,2.66,0,0,0-1.73-.58,2.94,2.94,0,0,0-1.63.46,1.89,1.89,0,0,0-.87,1.3H87a4.21,4.21,0,0,1,.87-2.26,4.83,4.83,0,0,1,2-1.46,6.45,6.45,0,0,1,2.68-.53,5.88,5.88,0,0,1,4,1.27A4.51,4.51,0,0,1,98,12.68V20H95.39l-.29-1.92a4.33,4.33,0,0,1-1.49,1.58A4.24,4.24,0,0,1,91.19,20.29Zm.7-2.4a2.5,2.5,0,0,0,2-.87,4.15,4.15,0,0,0,.93-2.13H92.25a2.73,2.73,0,0,0-1.76.45A1.34,1.34,0,0,0,90,16.42a1.24,1.24,0,0,0,.52,1.08A2.32,2.32,0,0,0,91.89,17.89ZM105.12,20a4.61,4.61,0,0,1-3-.91A4,4,0,0,1,101,15.85V10.66H99V8.1h2l.36-3.2h2.71V8.1h3.22v2.56h-3.22v5.21a1.59,1.59,0,0,0,.36,1.2,2.09,2.09,0,0,0,1.3.31h1.49V20Zm7.94.29a5.75,5.75,0,0,1-2.52-.48,3.33,3.33,0,0,1-1.94-3.12A3.28,3.28,0,0,1,109.89,14a6.15,6.15,0,0,1,3.89-1h3v-.29a2.2,2.2,0,0,0-.69-1.8,2.66,2.66,0,0,0-1.73-.58,2.91,2.91,0,0,0-1.63.46,1.89,1.89,0,0,0-.87,1.3h-3a4.21,4.21,0,0,1,.87-2.26,4.86,4.86,0,0,1,2-1.46,6.49,6.49,0,0,1,2.69-.53,5.9,5.9,0,0,1,4,1.27,4.51,4.51,0,0,1,1.47,3.6V20h-2.62L117,18.08a4.33,4.33,0,0,1-1.49,1.58A4.24,4.24,0,0,1,113.06,20.29Zm.69-2.4a2.47,2.47,0,0,0,2-.87,4.08,4.08,0,0,0,.94-2.13h-2.62a2.7,2.7,0,0,0-1.75.45,1.35,1.35,0,0,0-.53,1.08,1.25,1.25,0,0,0,.53,1.08A2.29,2.29,0,0,0,113.75,17.89Zm15.15,2.4a5.15,5.15,0,0,1-2.35-.51,4.13,4.13,0,0,1-1.63-1.41L124.58,20h-2.73V2.72h3.07V9.8a5.48,5.48,0,0,1,1.51-1.39,4.59,4.59,0,0,1,2.47-.6,5.62,5.62,0,0,1,3,.81A5.86,5.86,0,0,1,134,10.86a6.62,6.62,0,0,1,.77,3.21,6.69,6.69,0,0,1-.77,3.22,5.92,5.92,0,0,1-2.09,2.21A5.79,5.79,0,0,1,128.9,20.29Zm-.64-2.69a3.26,3.26,0,0,0,2.42-1,3.51,3.51,0,0,0,1-2.55,3.59,3.59,0,0,0-1-2.57,3.46,3.46,0,0,0-4.87,0,3.54,3.54,0,0,0-.94,2.55,3.62,3.62,0,0,0,.94,2.57A3.28,3.28,0,0,0,128.26,17.6ZM138.2,6.25a2,2,0,0,1-1.39-.51,1.68,1.68,0,0,1-.53-1.27,1.62,1.62,0,0,1,.53-1.25,2,2,0,0,1,1.39-.5,1.94,1.94,0,0,1,1.37.5,1.61,1.61,0,0,1,.55,1.25,1.66,1.66,0,0,1-.55,1.27A1.9,1.9,0,0,1,138.2,6.25ZM136.66,20V8.1h3.08V20Zm10.63,0a4.61,4.61,0,0,1-3-.91,4,4,0,0,1-1.13-3.24V10.66h-2V8.1h2l.36-3.2h2.71V8.1h3.22v2.56h-3.22v5.21a1.59,1.59,0,0,0,.36,1.2,2.09,2.09,0,0,0,1.3.31h1.48V20Z" transform="translate(0.73 0)"/><rect class="cls-5" y="19.27" width="0.73" height="0.73"/><path class="cls-2" d="M36.17,11.47" transform="translate(0.73 0)"/><path class="cls-4" d="M72.6-12" transform="translate(0.73 0)"/><path class="cls-3" d="M51.11,3.2" transform="translate(0.73 0)"/><path class="cls-2" d="M118.72-15.26" transform="translate(0.73 0)"/></svg>